HIERARCHY
ROOT Hips
{
	OFFSET 0.00000 0.00000 0.00000
	CHANNELS 6 Xposition Yposition Zposition Zrotation Yrotation Xrotation 
	JOINT LHipJoint
	{
		OFFSET 0 0 0
		CHANNELS 3 Zrotation Yrotation Xrotation
		JOINT LeftHip
		{
			OFFSET 1.34019 -1.87553 0.90315
			CHANNELS 3 Zrotation Yrotation Xrotation
			JOINT LeftKnee
			{
				OFFSET 2.55316 -7.01474 0.00000
				CHANNELS 3 Zrotation Yrotation Xrotation
				JOINT LeftAnkle
				{
					OFFSET 2.64657 -7.27139 0.00000
					CHANNELS 3 Zrotation Yrotation Xrotation
					JOINT LeftToe
					{
						OFFSET 0.24207 -0.66507 2.14489
						CHANNELS 3 Zrotation Yrotation Xrotation
						End Site
						{
							OFFSET 0.00000 -0.00000 1.12451
						}
					}
				}
			}
		}
	}
	JOINT RHipJoint
	{
		OFFSET 0 0 0
		CHANNELS 3 Zrotation Yrotation Xrotation
		JOINT RightHip
		{
			OFFSET -1.28320 -1.87553 0.90315
			CHANNELS 3 Zrotation Yrotation Xrotation
			JOINT RightKnee
			{
				OFFSET -2.60484 -7.15674 0.00000
				CHANNELS 3 Zrotation Yrotation Xrotation
				JOINT RightAnkle
				{
					OFFSET -2.60296 -7.15159 0.00000
					CHANNELS 3 Zrotation Yrotation Xrotation
					JOINT RightToe
					{
						OFFSET -0.31082 -0.85398 2.28998
						CHANNELS 3 Zrotation Yrotation Xrotation
						End Site
						{
							OFFSET -0.00000 -0.00000 1.21611
						}
					}
				}
			}
		}
	}
	JOINT lowerback
	{
		OFFSET 0 0 0
		CHANNELS 3 Zrotation Yrotation Xrotation
		JOINT Chest
		{
			OFFSET -0.00160 2.05581 -0.15156
			CHANNELS 3 Zrotation Yrotation Xrotation
			JOINT Chest2
			{
				OFFSET 0.04594 2.06326 -0.01617
				CHANNELS 3 Zrotation Yrotation Xrotation
				JOINT lowerneck
				{
					OFFSET 0 0 0
					CHANNELS 3 Zrotation Yrotation Xrotation
					JOINT Neck
					{
						OFFSET 0.03753 1.73883 0.26751
						CHANNELS 3 Zrotation Yrotation Xrotation
						JOINT Head
						{
							OFFSET -0.09795 1.76129 -0.31794
							CHANNELS 3 Zrotation Yrotation Xrotation
							End Site
							{
								OFFSET -0.03611 1.79987 -0.13846
							}
						}
					}
				}
				JOINT LeftCollar
				{
					OFFSET 0 0 0
					CHANNELS 3 Zrotation Yrotation Xrotation
					JOINT LeftShoulder
					{
						OFFSET 3.30667 1.29205 -0.22445
CHANNELS 3 Zrotation Xrotation Yrotation
						JOINT LeftElbow
						{
OFFSET 0 -4.927850 -0.000000
CHANNELS 3 Zrotation Xrotation Yrotation
							JOINT LeftWrist
							{
OFFSET 0 -3.440520 0.000000
CHANNELS 3 Zrotation Xrotation Yrotation
								JOINT lhand
								{
									OFFSET 0 0 0
CHANNELS 3 Zrotation Xrotation Yrotation
									JOINT LFingers
									{
OFFSET 0 -0.654330 0.000000
CHANNELS 3 Zrotation Xrotation Yrotation
										End Site
										{
OFFSET 0 -0.527530 0.000000
										}
									}
								}
								JOINT LThumb
								{
OFFSET 0 0.000000 0.000000
CHANNELS 3 Zrotation Xrotation Yrotation
									End Site
									{
OFFSET 0 -0.535590 0.535590
									}
								}
							}
						}
					}
				}
				JOINT RightCollar
				{
					OFFSET 0 0 0
					CHANNELS 3 Zrotation Yrotation Xrotation
					JOINT RightShoulder
					{
						OFFSET -3.20032 1.49783 -0.27688
CHANNELS 3 Zrotation Xrotation Yrotation
						JOINT RightElbow
						{
OFFSET 0 -5.091810 -0.000000
CHANNELS 3 Zrotation Xrotation Yrotation
							JOINT RightWrist
							{
OFFSET 0 -3.498650 -0.000000
CHANNELS 3 Zrotation Xrotation Yrotation
								JOINT rhand
								{
									OFFSET 0 0 0
CHANNELS 3 Zrotation Xrotation Yrotation
									JOINT RFingers
									{
OFFSET 0 -0.666410 0.000000
CHANNELS 3 Zrotation Xrotation Yrotation
										End Site
										{
OFFSET 0 -0.537280 0.000000
										}
									}
								}
								JOINT RThumb
								{
OFFSET 0 0.000000 0.000000
CHANNELS 3 Zrotation Xrotation Yrotation
									End Site
									{
OFFSET 0 -0.545480 0.545480
									}
								}
							}
						}
					}
				}
			}
		}
	}
}
MOTION
Frames: 5
Frame Time: 0.008333333333333333
-0.707200 17.057000 -26.268900 -8.444800 1.094300 7.822500 0.000000 0.000000 0.000000 2.258200 -15.285100 -44.656400 2.797000 10.359000 30.147200 0.112100 7.096000 -12.387600 0.836300 -5.833800 -16.303100 0.000000 0.000000 0.000000 32.117800 -0.516900 6.725300 -0.897000 -6.036200 16.889400 0.296300 -22.272700 -29.355700 -0.001100 0.213600 -0.587000 8.895700 0.221200 9.478400 5.532700 1.477300 0.970100 0.613600 0.618200 -4.242400 11.701500 2.545200 -16.882200 -11.536100 2.011800 5.089900 -5.376300 0.521600 4.504600 0.000000 -0.000000 0.000000 7.577700 5.530500 -44.786800 28.697900 -39.750900 10.567000 10.628500 -12.562300 2.446400 0.000000 0.000000 0.000000 -7.125000 0.000000 0.000000 -12.203600 27.425000 -5.323800 0.000000 -0.000000 0.000000 -4.119700 8.013400 15.341500 -15.680300 -25.085200 -3.509300 -20.880900 -1.338800 6.372100 0.000000 0.000000 0.000000 7.125000 0.000000 -0.000000 4.958000 36.756400 1.008400
-0.698644 17.025856 -26.177044 -8.524952 1.403888 7.906690 0.000000 0.000000 0.000000 2.393041 -15.502968 -45.113081 2.927598 10.575431 30.862475 0.116823 6.737952 -12.062133 0.852385 -5.888010 -16.459913 0.000000 0.000000 0.000000 32.269137 -0.732304 7.058570 -0.866472 -5.934829 16.595555 0.324227 -22.521985 -29.529830 -0.001032 0.208740 -0.573516 8.717531 0.018185 9.428091 5.866381 1.161278 1.335267 1.100946 0.485480 -3.854782 10.803128 2.867382 -18.075033 -11.368746 2.513109 5.069297 -5.129479 0.723999 4.733009 0.000000 0.000000 0.000000 6.654071 5.083607 -43.647493 28.783185 -39.827287 10.621621 10.723505 -12.399737 2.571385 0.000000 0.000000 0.000000 -7.125000 0.000000 0.000000 -12.118862 27.300699 -5.321473 0.000000 0.000000 0.000000 -4.763311 6.851916 16.513730 -15.369138 -24.656993 -3.378976 -20.848524 -1.212241 6.362928 0.000000 0.000000 0.000000 7.125000 0.000000 0.000000 4.984284 36.744764 1.015176
-0.689977 16.993864 -26.084302 -8.603997 1.711926 7.993279 0.000000 0.000000 0.000000 2.523086 -15.702610 -45.648607 3.097009 10.847019 31.769420 0.123427 6.378169 -11.778467 0.865297 -5.931337 -16.585292 0.000000 0.000000 0.000000 32.422910 -0.922324 7.331038 -0.849559 -5.878618 16.432613 0.337211 -22.754853 -29.787785 -0.001037 0.209267 -0.574900 8.612636 -0.106133 9.399550 6.108711 0.965755 1.600855 1.436838 0.404893 -3.574418 10.091074 3.083491 -18.991266 -11.241608 2.865326 4.993648 -4.938184 0.863160 4.883459 0.000000 0.000000 0.000000 5.940926 4.775733 -42.792386 28.878137 -39.912124 10.682514 10.812164 -12.268757 2.691094 0.000000 0.000000 0.000000 -7.125000 0.000000 0.000000 -12.039585 27.181490 -5.319810 0.000000 0.000000 0.000000 -5.186475 5.923275 17.446329 -15.091292 -24.272580 -3.263779 -20.807995 -1.078339 6.313246 0.000000 0.000000 0.000000 7.125000 0.000000 0.000000 5.013187 36.689592 1.027893
-0.681099 16.959982 -25.990744 -8.681871 2.018815 8.082468 0.000000 0.000000 0.000000 2.646599 -15.882755 -46.253718 3.300484 11.165565 32.841289 0.130968 6.020574 -11.523082 0.875133 -5.964132 -16.680262 0.000000 0.000000 0.000000 32.578492 -1.091833 7.556048 -0.843525 -5.858393 16.374018 0.337715 -22.973380 -30.114821 -0.001116 0.215293 -0.591458 8.577835 -0.151381 9.392206 6.259486 0.891371 1.762691 1.622874 0.376834 -3.405810 9.570329 3.192582 -19.611238 -11.155096 3.065363 4.858063 -4.803960 0.938298 4.951762 0.000000 0.000000 0.000000 5.440927 4.618077 -42.222325 28.984118 -40.006584 10.750561 10.894338 -12.169924 2.807472 0.000000 0.000000 0.000000 -7.125000 0.000000 0.000000 -11.965687 27.065450 -5.319334 0.000000 0.000000 0.000000 -5.387991 5.237900 18.139295 -14.847825 -23.933660 -3.164024 -20.759899 -0.936220 6.225392 0.000000 0.000000 0.000000 7.125000 0.000000 0.000000 5.044454 36.593416 1.046202
-0.670832 16.912342 -25.896492 -8.757095 2.327786 8.178158 0.000000 0.000000 0.000000 2.741399 -16.016706 -46.884324 3.514245 11.481587 33.925085 0.130557 5.706332 -11.179476 0.880677 -5.982476 -16.733582 0.000000 0.000000 0.000000 32.730856 -1.275478 7.834698 -0.828466 -5.807058 16.225624 0.341754 -23.188373 -30.411062 -0.001321 0.231857 -0.637044 8.630813 -0.057608 9.415341 6.251614 1.030662 1.704922 1.568732 0.442612 -3.473847 9.427206 3.109077 -19.525884 -11.142228 2.973917 4.570583 -4.782947 0.895998 4.837250 0.000000 0.000000 0.000000 5.332370 4.830469 -42.148333 29.122724 -40.129379 10.839748 10.964018 -12.131799 2.937795 0.000000 0.000000 0.000000 -7.125000 0.000000 0.000000 -11.900183 26.935400 -5.326179 0.000000 0.000000 0.000000 -5.198255 5.073900 18.422394 -14.673901 -23.689714 -3.093866 -20.704799 -0.771193 6.095890 0.000000 0.000000 0.000000 7.125000 0.000000 0.000000 5.077171 36.452688 1.070569
